HIERARCHY
ROOT mixamorig:Hips
{
	OFFSET -0.000008 104.274872 1.554316
	CHANNELS 6 Xposition Yposition Zposition Xrotation Yrotation Zrotation
	JOINT mixamorig:Spine
	{
		OFFSET -0.000005 10.181595 0.131519
		CHANNELS 6 Xposition Yposition Zposition Xrotation Yrotation Zrotation
		JOINT mixamorig:Spine1
		{
			OFFSET -0.000000 9.893959 -1.470707
			CHANNELS 6 Xposition Yposition Zposition Xrotation Yrotation Zrotation
			JOINT mixamorig:Spine2
			{
				OFFSET -0.000000 9.220757 -1.370641
				CHANNELS 6 Xposition Yposition Zposition Xrotation Yrotation Zrotation
				JOINT mixamorig:Neck
				{
					OFFSET 0.000001 16.740417 -2.049036
					CHANNELS 6 Xposition Yposition Zposition Xrotation Yrotation Zrotation
					JOINT mixamorig:Head
					{
						OFFSET 0.000000 9.617874 1.685006
						CHANNELS 6 Xposition Yposition Zposition Xrotation Yrotation Zrotation
						JOINT mixamorig:HeadTop_End
						{
							OFFSET 0.000002 22.037354 7.501101
							CHANNELS 6 Xposition Yposition Zposition Xrotation Yrotation Zrotation
							End Site
							{
								OFFSET 0.000168 2310.654297 -282.823242
							}
						}
					}
				}
				JOINT mixamorig:RightShoulder
				{
					OFFSET -4.569970 11.014908 -2.160885
					CHANNELS 6 Xposition Yposition Zposition Xrotation Yrotation Zrotation
					JOINT mixamorig:RightArm
					{
						OFFSET -10.592851 -0.524811 -2.232101
						CHANNELS 6 Xposition Yposition Zposition Xrotation Yrotation Zrotation
						JOINT mixamorig:RightForeArm
						{
							OFFSET -27.841511 0.000031 -0.000004
							CHANNELS 6 Xposition Yposition Zposition Xrotation Yrotation Zrotation
							JOINT mixamorig:RightHand
							{
								OFFSET -28.328831 -0.000015 0.000015
								CHANNELS 6 Xposition Yposition Zposition Xrotation Yrotation Zrotation
								JOINT mixamorig:RightHandThumb1
								{
									OFFSET -2.464806 -1.573990 2.681852
									CHANNELS 6 Xposition Yposition Zposition Xrotation Yrotation Zrotation
									JOINT mixamorig:RightHandThumb2
									{
										OFFSET -3.215179 -1.872803 1.924282
										CHANNELS 6 Xposition Yposition Zposition Xrotation Yrotation Zrotation
										JOINT mixamorig:RightHandThumb3
										{
											OFFSET -2.654831 -1.527969 1.512609
											CHANNELS 6 Xposition Yposition Zposition Xrotation Yrotation Zrotation
											JOINT mixamorig:RightHandThumb4
											{
												OFFSET -2.018814 -1.152008 1.108052
												CHANNELS 6 Xposition Yposition Zposition Xrotation Yrotation Zrotation
												End Site
												{
													OFFSET -188.809540 -114.533607 132.431396
												}
											}
										}
									}
								}
								JOINT mixamorig:RightHandIndex1
								{
									OFFSET -9.108284 -0.517868 2.259835
									CHANNELS 6 Xposition Yposition Zposition Xrotation Yrotation Zrotation
									JOINT mixamorig:RightHandIndex2
									{
										OFFSET -3.699989 0.000000 0.001215
										CHANNELS 6 Xposition Yposition Zposition Xrotation Yrotation Zrotation
										JOINT mixamorig:RightHandIndex3
										{
											OFFSET -2.850006 0.000031 -0.000522
											CHANNELS 6 Xposition Yposition Zposition Xrotation Yrotation Zrotation
											JOINT mixamorig:RightHandIndex4
											{
												OFFSET -2.772186 -0.000015 -0.000020
												CHANNELS 6 Xposition Yposition Zposition Xrotation Yrotation Zrotation
												End Site
												{
													OFFSET -277.218445 0.000000 -0.050231
												}
											}
										}
									}
								}
								JOINT mixamorig:RightHandMiddle1
								{
									OFFSET -9.532516 -0.000031 -0.000023
									CHANNELS 6 Xposition Yposition Zposition Xrotation Yrotation Zrotation
									JOINT mixamorig:RightHandMiddle2
									{
										OFFSET -3.700005 -0.000015 0.003713
										CHANNELS 6 Xposition Yposition Zposition Xrotation Yrotation Zrotation
										JOINT mixamorig:RightHandMiddle3
										{
											OFFSET -2.949974 0.000015 -0.002054
											CHANNELS 6 Xposition Yposition Zposition Xrotation Yrotation Zrotation
											JOINT mixamorig:RightHandMiddle4
											{
												OFFSET -2.946640 0.000000 -0.000156
												CHANNELS 6 Xposition Yposition Zposition Xrotation Yrotation Zrotation
												End Site
												{
													OFFSET -294.664337 0.000000 -0.113670
												}
											}
										}
									}
								}
								JOINT mixamorig:RightHandRing1
								{
									OFFSET -9.103600 -0.043076 -1.865134
									CHANNELS 6 Xposition Yposition Zposition Xrotation Yrotation Zrotation
									JOINT mixamorig:RightHandRing2
									{
										OFFSET -3.379288 0.000000 -0.001055
										CHANNELS 6 Xposition Yposition Zposition Xrotation Yrotation Zrotation
										JOINT mixamorig:RightHandRing3
										{
											OFFSET -2.889687 -0.000015 0.000379
											CHANNELS 6 Xposition Yposition Zposition Xrotation Yrotation Zrotation
											JOINT mixamorig:RightHandRing4
											{
												OFFSET -2.638809 -0.000015 0.000941
												CHANNELS 6 Xposition Yposition Zposition Xrotation Yrotation Zrotation
												End Site
												{
													OFFSET -263.880371 0.000000 0.516020
												}
											}
										}
									}
								}
								JOINT mixamorig:RightHandPinky1
								{
									OFFSET -8.076683 -0.486710 -3.806280
									CHANNELS 6 Xposition Yposition Zposition Xrotation Yrotation Zrotation
									JOINT mixamorig:RightHandPinky2
									{
										OFFSET -3.600014 -0.000015 -0.003747
										CHANNELS 6 Xposition Yposition Zposition Xrotation Yrotation Zrotation
										JOINT mixamorig:RightHandPinky3
										{
											OFFSET -2.099983 0.000000 -0.005739
											CHANNELS 6 Xposition Yposition Zposition Xrotation Yrotation Zrotation
											JOINT mixamorig:RightHandPinky4
											{
												OFFSET -2.115768 -0.000031 -0.003680
												CHANNELS 6 Xposition Yposition Zposition Xrotation Yrotation Zrotation
												End Site
												{
													OFFSET -211.577087 0.000000 -0.350686
												}
											}
										}
									}
								}
							}
						}
					}
				}
				JOINT mixamorig:LeftShoulder
				{
					OFFSET 4.570447 11.014725 -2.160855
					CHANNELS 6 Xposition Yposition Zposition Xrotation Yrotation Zrotation
					JOINT mixamorig:LeftArm
					{
						OFFSET 10.592371 -0.524597 -2.232119
						CHANNELS 6 Xposition Yposition Zposition Xrotation Yrotation Zrotation
						JOINT mixamorig:LeftForeArm
						{
							OFFSET 27.841532 -0.000031 0.000026
							CHANNELS 6 Xposition Yposition Zposition Xrotation Yrotation Zrotation
							JOINT mixamorig:LeftHand
							{
								OFFSET 28.328846 -0.000061 0.000022
								CHANNELS 6 Xposition Yposition Zposition Xrotation Yrotation Zrotation
								JOINT mixamorig:LeftHandThumb1
								{
									OFFSET 2.466141 -1.576172 2.681732
									CHANNELS 6 Xposition Yposition Zposition Xrotation Yrotation Zrotation
									JOINT mixamorig:LeftHandThumb2
									{
										OFFSET 3.217812 -1.872070 1.916482
										CHANNELS 6 Xposition Yposition Zposition Xrotation Yrotation Zrotation
										JOINT mixamorig:LeftHandThumb3
										{
											OFFSET 2.656029 -1.528778 1.514513
											CHANNELS 6 Xposition Yposition Zposition Xrotation Yrotation Zrotation
											JOINT mixamorig:LeftHandThumb4
											{
												OFFSET 2.020889 -1.154053 1.115139
												CHANNELS 6 Xposition Yposition Zposition Xrotation Yrotation Zrotation
												End Site
												{
													OFFSET 190.885437 -115.081749 130.048782
												}
											}
										}
									}
								}
								JOINT mixamorig:LeftHandIndex1
								{
									OFFSET 9.109314 -0.518021 2.259871
									CHANNELS 6 Xposition Yposition Zposition Xrotation Yrotation Zrotation
									JOINT mixamorig:LeftHandIndex2
									{
										OFFSET 3.699989 0.000000 -0.000322
										CHANNELS 6 Xposition Yposition Zposition Xrotation Yrotation Zrotation
										JOINT mixamorig:LeftHandIndex3
										{
											OFFSET 2.850006 0.000000 0.000352
											CHANNELS 6 Xposition Yposition Zposition Xrotation Yrotation Zrotation
											JOINT mixamorig:LeftHandIndex4
											{
												OFFSET 2.774864 -0.000031 -0.000027
												CHANNELS 6 Xposition Yposition Zposition Xrotation Yrotation Zrotation
												End Site
												{
													OFFSET 277.486267 0.000000 -0.009857
												}
											}
										}
									}
								}
								JOINT mixamorig:LeftHandMiddle1
								{
									OFFSET 9.533394 0.000061 0.000044
									CHANNELS 6 Xposition Yposition Zposition Xrotation Yrotation Zrotation
									JOINT mixamorig:LeftHandMiddle2
									{
										OFFSET 3.699989 -0.000015 -0.000231
										CHANNELS 6 Xposition Yposition Zposition Xrotation Yrotation Zrotation
										JOINT mixamorig:LeftHandMiddle3
										{
											OFFSET 2.949997 -0.000015 -0.000059
											CHANNELS 6 Xposition Yposition Zposition Xrotation Yrotation Zrotation
											JOINT mixamorig:LeftHandMiddle4
											{
												OFFSET 2.952896 0.000031 0.000063
												CHANNELS 6 Xposition Yposition Zposition Xrotation Yrotation Zrotation
												End Site
												{
													OFFSET 295.289337 0.000000 0.022810
												}
											}
										}
									}
								}
								JOINT mixamorig:LeftHandRing1
								{
									OFFSET 9.104523 -0.042999 -1.865074
									CHANNELS 6 Xposition Yposition Zposition Xrotation Yrotation Zrotation
									JOINT mixamorig:LeftHandRing2
									{
										OFFSET 3.150009 -0.000031 0.000043
										CHANNELS 6 Xposition Yposition Zposition Xrotation Yrotation Zrotation
										JOINT mixamorig:LeftHandRing3
										{
											OFFSET 2.949982 -0.000015 0.000040
											CHANNELS 6 Xposition Yposition Zposition Xrotation Yrotation Zrotation
											JOINT mixamorig:LeftHandRing4
											{
												OFFSET 2.644348 0.000000 0.000057
												CHANNELS 6 Xposition Yposition Zposition Xrotation Yrotation Zrotation
												End Site
												{
													OFFSET 264.434631 0.000000 0.012105
												}
											}
										}
									}
								}
								JOINT mixamorig:LeftHandPinky1
								{
									OFFSET 8.077789 -0.486847 -3.806259
									CHANNELS 6 Xposition Yposition Zposition Xrotation Yrotation Zrotation
									JOINT mixamorig:LeftHandPinky2
									{
										OFFSET 3.599953 0.000031 0.014727
										CHANNELS 6 Xposition Yposition Zposition Xrotation Yrotation Zrotation
										JOINT mixamorig:LeftHandPinky3
										{
											OFFSET 2.100021 0.000015 0.007705
											CHANNELS 6 Xposition Yposition Zposition Xrotation Yrotation Zrotation
											JOINT mixamorig:LeftHandPinky4
											{
												OFFSET 2.125504 0.000031 0.007517
												CHANNELS 6 Xposition Yposition Zposition Xrotation Yrotation Zrotation
												End Site
												{
													OFFSET 212.550781 0.000000 0.625752
												}
											}
										}
									}
								}
							}
						}
					}
				}
			}
		}
	}
	JOINT mixamorig:RightUpLeg
	{
		OFFSET -8.207787 -6.751648 -1.599560
		CHANNELS 6 Xposition Yposition Zposition Xrotation Yrotation Zrotation
		JOINT mixamorig:RightLeg
		{
			OFFSET -0.000002 -44.370117 0.345942
			CHANNELS 6 Xposition Yposition Zposition Xrotation Yrotation Zrotation
			JOINT mixamorig:RightFoot
			{
				OFFSET 0.000003 -44.423679 -3.043532
				CHANNELS 6 Xposition Yposition Zposition Xrotation Yrotation Zrotation
				JOINT mixamorig:RightToeBase
				{
					OFFSET -0.000002 -8.728671 10.710558
					CHANNELS 6 Xposition Yposition Zposition Xrotation Yrotation Zrotation
					JOINT mixamorig:RightToe_End
					{
						OFFSET -0.000001 -0.000679 9.278119
						CHANNELS 6 Xposition Yposition Zposition Xrotation Yrotation Zrotation
						End Site
						{
							OFFSET 0.000000 -0.067690 927.812134
						}
					}
				}
			}
		}
	}
	JOINT mixamorig:LeftUpLeg
	{
		OFFSET 8.207793 -6.751686 -1.599556
		CHANNELS 6 Xposition Yposition Zposition Xrotation Yrotation Zrotation
		JOINT mixamorig:LeftLeg
		{
			OFFSET -0.000004 -44.370014 0.346954
			CHANNELS 6 Xposition Yposition Zposition Xrotation Yrotation Zrotation
			JOINT mixamorig:LeftFoot
			{
				OFFSET -0.000001 -44.423672 -3.044401
				CHANNELS 6 Xposition Yposition Zposition Xrotation Yrotation Zrotation
				JOINT mixamorig:LeftToeBase
				{
					OFFSET -0.000002 -8.728669 10.710558
					CHANNELS 6 Xposition Yposition Zposition Xrotation Yrotation Zrotation
					JOINT mixamorig:LeftToe_End
					{
						OFFSET -0.000003 -0.000679 9.278133
						CHANNELS 6 Xposition Yposition Zposition Xrotation Yrotation Zrotation
						End Site
						{
							OFFSET 0.000000 -0.068021 927.813477
						}
					}
				}
			}
		}
	}
}
MOTION
Frames: 3
Frame Time: 0.033333
0.000006 104.270477 1.554256 0.000010 0.000003 -0.000113 -0.000005 10.181587 0.131522 0.000001 -0.000003 0.000084 -0.000000 9.893967 -1.470711 0.000001 0.000000 -0.000000 -0.000000 9.220802 -1.370642 0.000000 -0.000000 -0.000000 0.000001 16.740433 -2.049030 0.000000 -0.000000 -0.000000 0.000000 9.617859 1.685014 0.000000 0.000000 0.000000 0.000002 22.037384 7.501101 0.000000 -0.000000 0.000000 -4.569968 11.014880 -2.160881 0.000008 0.000001 -0.000038 -10.592766 -0.524842 -2.231731 65.984832 72.865530 -51.209282 -27.841522 0.000021 0.000549 82.598236 104.797525 -97.520676 -28.328835 0.000052 0.000032 -0.000323 -0.000045 0.000006 -2.464936 -1.573973 2.682005 168.047406 -213.187034 164.894891 -3.215319 -1.872767 1.924504 338.503246 45.515076 -17.294170 -2.654993 -1.527897 1.512935 382.558595 63.584956 -44.014152 -2.018831 -1.152020 1.108046 -0.000003 -0.000002 0.000004 -9.108349 -0.517984 2.260282 264.473421 21.455084 23.596212 -3.700009 0.000007 0.001782 154.129120 55.211124 227.470872 -2.850147 0.000271 -0.000181 97.924163 30.463658 -394.739827 -2.772151 -0.000015 -0.000020 0.000001 0.000007 0.000001 -9.532518 -0.000127 0.000485 238.964769 7.424160 13.261855 -3.699948 0.000010 0.004312 165.429080 36.735633 222.401915 -2.950091 0.000287 -0.001776 93.571823 20.979100 -382.288393 -2.946627 0.000013 -0.000156 0.000001 -0.000001 0.000004 -9.103609 -0.043033 -1.864560 219.656247 10.070544 27.395937 -3.379365 0.000267 -0.000761 276.858521 -199.240907 158.339412 -2.889759 0.000282 0.000519 424.610704 11.257641 -7.163141 -2.638841 -0.000011 0.000945 0.000001 -0.000000 0.000001 -8.076603 -0.486735 -3.805702 170.600763 12.317014 -104.153958 -3.599917 0.000354 -0.003488 468.903524 -9.362508 13.427891 -2.099938 0.000304 -0.005622 430.877621 -7.205407 5.254508 -2.115766 -0.000053 -0.003692 0.000002 -0.000001 -0.000004 4.570446 11.014691 -2.160851 -0.000018 0.000010 -0.000021 10.592524 -0.524545 -2.232383 64.819438 -68.034722 46.390051 27.841700 -0.000077 -0.000086 263.795703 -72.336812 281.652249 28.328829 -0.000012 0.000031 0.000021 -0.000088 0.000001 2.466140 -1.576200 2.681799 160.878863 175.538102 -175.622182 3.217826 -1.872011 1.916535 303.973963 32.363239 17.474793 2.656033 -1.528813 1.514590 -103.600378 47.518063 51.147831 2.020875 -1.154066 1.115159 0.000005 0.000006 0.000006 9.109288 -0.517828 2.260120 -96.635442 -8.353521 -9.367841 3.699939 0.000329 -0.000141 219.708239 -6.603102 -18.184542 2.849920 0.000419 0.000352 161.322907 3.886658 -23.321544 2.774879 -0.000030 -0.000025 -0.000001 0.000000 0.000000 9.533398 0.000291 0.000257 -118.998520 -1.807930 -3.056985 3.700106 0.000135 -0.000153 194.289676 11.156111 75.866053 2.949879 0.000296 -0.000210 118.825320 17.721428 330.453513 2.952877 -0.000026 0.000062 -0.000001 0.000003 0.000001 9.104551 -0.042707 -1.864896 -137.063633 1.076247 2.732090 3.149777 0.000355 -0.000105 131.786792 26.812579 303.914813 2.949930 0.000175 -0.000171 71.565199 15.070080 -10.891333 2.644322 0.000018 0.000054 -0.000000 0.000000 0.000001 8.077915 -0.486630 -3.806175 -173.131731 4.542993 58.034437 3.599764 0.000249 0.014534 103.361014 37.517116 -46.423710 2.099942 0.000097 0.007519 229.940367 156.973238 -190.757334 2.125494 -0.000027 0.007510 -0.000001 0.000003 0.000003 -8.207786 -6.751667 -1.599560 -0.077001 -0.000003 0.000080 -0.000002 -44.370110 0.345938 0.153719 -0.000000 -0.000000 0.000000 -44.423679 -3.043532 -0.076700 0.000000 -0.000002 -0.000006 -8.728667 10.710559 -0.000009 -0.000000 -0.000000 -0.000001 -0.000679 9.278123 0.000000 -0.000000 -0.000000 8.207792 -6.751710 -1.599556 -0.074518 -0.000003 0.000081 -0.000002 -44.370014 0.346960 0.148822 0.000002 0.000000 -0.000001 -44.423664 -3.044403 -0.074314 0.000000 -0.000002 -0.000004 -8.728671 10.710558 0.000007 -0.000000 -0.000000 0.000000 -0.000680 9.278137 -0.000000 0.000000 -0.000001 
0.000006 104.270477 1.554256 0.000010 0.000003 -0.000113 -0.000005 10.181587 0.131522 0.000001 -0.000003 0.000084 -0.000000 9.893967 -1.470711 0.000001 0.000000 -0.000000 -0.000000 9.220802 -1.370642 0.000000 -0.000000 -0.000000 0.000001 16.740433 -2.049030 0.000000 -0.000000 -0.000000 0.000000 9.617859 1.685014 0.000000 0.000000 0.000000 0.000002 22.037384 7.501101 0.000000 -0.000000 0.000000 -4.569968 11.014880 -2.160881 0.000008 0.000001 -0.000038 -10.592760 -0.524841 -2.231726 66.511843 73.598068 -52.262050 -27.841528 0.000003 0.000540 84.771431 104.010483 -98.880594 -28.328829 0.000036 0.000027 -0.000323 -0.000044 0.000007 -2.464943 -1.573929 2.682023 172.255349 -216.953828 162.940774 -3.215329 -1.872748 1.924503 340.623774 46.246442 -17.943566 -2.654997 -1.527918 1.512899 372.994991 60.719863 -36.074341 -2.018822 -1.151999 1.108062 -0.000003 0.000004 0.000003 -9.108351 -0.517990 2.260227 270.500025 19.086124 18.946368 -3.699996 0.000025 0.001784 154.383299 53.659493 228.453886 -2.850139 0.000304 -0.000219 101.902919 22.201340 -387.193069 -2.772161 0.000017 -0.000018 -0.000000 -0.000001 -0.000001 -9.532511 -0.000123 0.000489 242.348062 7.233702 12.089227 -3.699954 -0.000007 0.004292 169.382681 43.094812 206.715142 -2.950090 0.000302 -0.001824 88.922581 20.538022 -380.155707 -2.946616 0.000030 -0.000148 -0.000005 -0.000004 -0.000000 -9.103592 -0.042996 -1.864561 222.196135 13.356137 33.708131 -3.379418 0.000207 -0.000726 277.871357 -209.211426 146.673873 -2.889785 0.000291 0.000537 432.640848 14.384049 -10.636791 -2.638808 -0.000013 0.000943 0.000001 -0.000000 -0.000000 -8.076668 -0.486639 -3.805708 162.803392 20.538147 -99.588905 -3.600008 0.000291 -0.003415 471.719693 4.511088 -6.151929 -2.099979 0.000335 -0.005568 441.464578 -1.859379 1.768355 -2.115771 -0.000055 -0.003670 0.000001 -0.000003 -0.000005 4.570446 11.014691 -2.160851 -0.000018 0.000010 -0.000021 10.592531 -0.524545 -2.232381 66.016845 -68.433195 47.667398 27.841700 -0.000057 -0.000096 266.251429 -73.097538 283.281331 28.328840 -0.000013 0.000019 0.000019 -0.000090 -0.000000 2.466139 -1.576204 2.681801 156.863504 173.185607 -174.877800 3.217813 -1.872034 1.916512 298.914159 37.751173 20.672254 2.655989 -1.528807 1.514597 -108.500827 56.663075 59.204886 2.020894 -1.154082 1.115127 -0.000000 -0.000001 0.000004 9.109277 -0.517841 2.260105 -93.550676 -10.513519 -11.173471 3.699951 0.000335 -0.000147 210.067030 -4.271546 -15.854445 2.849894 0.000394 0.000301 147.989326 8.858440 -30.225476 2.774888 -0.000046 -0.000013 0.000002 0.000000 -0.000000 9.533376 0.000315 0.000249 -120.263512 -5.880009 -10.209721 3.700061 0.000030 -0.000159 190.867068 15.137019 108.823225 2.949867 0.000246 -0.000230 113.908854 26.647546 319.993461 2.952862 -0.000016 0.000049 -0.000000 -0.000001 0.000001 9.104502 -0.042686 -1.864891 -139.306093 -3.583836 -9.648183 3.149696 0.000305 -0.000101 140.601520 37.157079 273.616422 2.949877 0.000164 -0.000188 67.801608 30.198988 -20.553132 2.644318 0.000030 0.000056 -0.000000 0.000001 -0.000000 8.077841 -0.486511 -3.806168 -169.302126 1.897423 14.519654 3.599740 0.000185 0.014554 103.363117 48.225978 -59.099872 2.099921 0.000064 0.007535 221.842509 148.631583 -192.241439 2.125499 -0.000057 0.007517 -0.000003 0.000002 0.000005 -8.207786 -6.751667 -1.599560 -0.077001 -0.000003 0.000080 -0.000002 -44.370110 0.345938 0.153719 -0.000000 -0.000000 0.000000 -44.423679 -3.043532 -0.076700 0.000000 -0.000002 -0.000006 -8.728667 10.710559 -0.000009 -0.000000 -0.000000 -0.000001 -0.000679 9.278123 0.000000 -0.000000 -0.000000 8.207792 -6.751710 -1.599556 -0.074518 -0.000003 0.000081 -0.000002 -44.370014 0.346960 0.148822 0.000002 0.000000 -0.000001 -44.423664 -3.044403 -0.074314 0.000000 -0.000002 -0.000004 -8.728671 10.710558 0.000007 -0.000000 -0.000000 0.000000 -0.000680 9.278137 -0.000000 0.000000 -0.000001 
0.000006 104.270477 1.554256 0.000010 0.000003 -0.000113 -0.000005 10.181587 0.131522 0.000001 -0.000003 0.000084 -0.000000 9.893967 -1.470711 0.000001 0.000000 -0.000000 -0.000000 9.220802 -1.370642 0.000000 -0.000000 -0.000000 0.000001 16.740433 -2.049030 0.000000 -0.000000 -0.000000 0.000000 9.617859 1.685014 0.000000 0.000000 0.000000 0.000002 22.037384 7.501101 0.000000 -0.000000 0.000000 -4.569968 11.014880 -2.160881 0.000008 0.000001 -0.000038 -10.592765 -0.524837 -2.231725 67.661247 72.649601 -52.465347 -27.841528 -0.000007 0.000546 83.639819 105.286710 -99.060064 -28.328829 0.000022 0.000029 -0.000325 -0.000045 0.000007 -2.464938 -1.573976 2.682012 168.283444 -213.771015 164.645822 -3.215323 -1.872740 1.924520 336.651336 45.593640 -16.966012 -2.655005 -1.527917 1.512915 372.857267 62.236848 -37.413399 -2.018842 -1.152014 1.108068 -0.000003 -0.000003 0.000002 -9.108342 -0.518008 2.260253 267.219840 20.051663 21.050781 -3.699909 0.000016 0.001829 183.695383 51.506173 172.389754 -2.850137 0.000305 -0.000181 104.220750 20.317702 -385.932736 -2.772164 -0.000015 -0.000029 0.000001 0.000000 0.000000 -9.532519 -0.000139 0.000485 239.391683 7.834284 13.859028 -3.699841 0.000031 0.004317 182.933885 33.369589 170.477492 -2.950086 0.000306 -0.001819 95.139023 15.834299 -377.292601 -2.946624 0.000000 -0.000142 0.000002 0.000000 -0.000000 -9.103621 -0.043005 -1.864558 221.530683 11.838032 30.525335 -3.379381 0.000096 -0.000616 298.284197 -223.543349 112.447317 -2.889817 0.000281 0.000536 428.848672 16.977972 -11.716909 -2.638805 -0.000028 0.000941 0.000004 -0.000001 -0.000002 -8.076671 -0.486655 -3.805712 161.769096 15.914269 -81.324487 -3.600031 0.000291 -0.003379 488.838825 5.024712 -9.756909 -2.099970 0.000317 -0.005585 438.671987 -2.973869 2.593102 -2.115757 -0.000029 -0.003690 -0.000002 0.000004 -0.000005 4.570446 11.014691 -2.160851 -0.000018 0.000010 -0.000021 10.592526 -0.524546 -2.232384 67.138335 -68.046627 48.266044 27.841709 -0.000056 -0.000095 265.939563 -73.121840 282.952198 28.328829 -0.000012 0.000041 0.000022 -0.000089 0.000001 2.466148 -1.576176 2.681792 155.039844 173.448310 -174.237347 3.217824 -1.872015 1.916529 296.402999 33.608953 21.535453 2.656007 -1.528819 1.514589 -107.091472 49.268497 54.564377 2.020899 -1.154066 1.115152 0.000004 0.000001 0.000002 9.109278 -0.517842 2.260110 -96.097203 -9.872489 -10.967763 3.699933 0.000338 -0.000165 208.616408 -4.826552 -18.809880 2.849913 0.000427 0.000277 148.269432 6.946527 -24.112784 2.774879 -0.000014 -0.000043 -0.000001 0.000003 0.000000 9.533380 0.000284 0.000252 -118.978453 -5.294445 -8.961574 3.700066 0.000024 -0.000150 189.621897 13.434681 108.923247 2.949874 0.000278 -0.000218 113.888678 23.818234 324.090154 2.952880 -0.000019 0.000089 -0.000002 -0.000004 -0.000003 9.104524 -0.042709 -1.864893 -136.464024 -1.393610 -3.492862 3.149735 0.000300 -0.000133 126.541822 40.831431 287.062196 2.949910 0.000149 -0.000181 63.193600 24.798153 -15.402838 2.644325 0.000031 0.000055 0.000000 0.000000 -0.000000 8.077869 -0.486534 -3.806148 -160.436349 5.104420 25.813360 3.599763 0.000174 0.014542 97.311973 52.454210 -58.574309 2.099934 0.000070 0.007526 224.486653 149.554328 -192.676221 2.125490 -0.000004 0.007510 -0.000001 -0.000002 -0.000000 -8.207786 -6.751667 -1.599560 -0.077001 -0.000003 0.000080 -0.000002 -44.370110 0.345938 0.153719 -0.000000 -0.000000 0.000000 -44.423679 -3.043532 -0.076700 0.000000 -0.000002 -0.000006 -8.728667 10.710559 -0.000009 -0.000000 -0.000000 -0.000001 -0.000679 9.278123 0.000000 -0.000000 -0.000000 8.207792 -6.751710 -1.599556 -0.074518 -0.000003 0.000081 -0.000002 -44.370014 0.346960 0.148822 0.000002 0.000000 -0.000001 -44.423664 -3.044403 -0.074314 0.000000 -0.000002 -0.000004 -8.728671 10.710558 0.000007 -0.000000 -0.000000 0.000000 -0.000680 9.278137 -0.000000 0.000000 -0.000001 
